<?xml version="1.0" standalone="no"?>
<!DOCTYPE svg PUBLIC "-//W3C//DTD SVG 20010904//EN"
 "http://www.w3.org/TR/2001/REC-SVG-20010904/DTD/svg10.dtd">
<svg version="1.0" xmlns="http://www.w3.org/2000/svg"
 width="3840.000000pt" height="2160.000000pt" viewBox="0 0 3840.000000 2160.000000"
 preserveAspectRatio="xMidYMid meet">

<g transform="translate(0.000000,2160.000000) scale(0.100000,-0.100000)"
fill="#000000" stroke="none">
<path d="M17492 20732 c-37 -2 -52 -7 -49 -15 7 -17 149 -368 311 -772 75
-187 141 -349 146 -360 5 -11 52 -128 105 -260 53 -132 100 -249 105 -260 10
-21 201 -497 412 -1023 96 -239 124 -300 133 -290 10 11 133 233 385 693 67
122 322 585 535 970 127 231 247 447 265 480 18 33 57 105 88 160 30 55 69
125 85 155 16 30 56 103 88 161 33 58 59 111 59 116 0 14 -190 59 -440 103
-102 18 -191 31 -480 70 -91 12 -333 36 -450 45 -47 3 -110 8 -140 11 -167 16
-975 28 -1158 16z"/>
<path d="M16935 20703 c-152 -12 -547 -66 -690 -93 -349 -67 -406 -80 -660
-141 -188 -46 -299 -75 -450 -119 -60 -18 -123 -36 -140 -40 -165 -45 -568
-183 -572 -196 -2 -5 26 -45 62 -89 198 -241 849 -1027 1169 -1414 144 -173
272 -329 286 -347 72 -93 524 -634 529 -634 4 0 13 33 20 73 7 39 48 250 91
467 43 217 133 672 200 1010 67 338 142 716 166 840 25 124 56 281 69 350 14
69 34 170 45 225 11 55 20 103 20 108 0 7 -63 7 -145 0z"/>
<path d="M20490 20423 c0 -5 5 -62 10 -128 6 -66 17 -201 25 -300 14 -175 34
-428 55 -685 6 -69 17 -206 25 -305 8 -99 19 -236 25 -305 6 -69 17 -210 26
-315 31 -386 43 -543 54 -675 6 -74 17 -213 25 -308 7 -96 16 -176 19 -179 3
-3 110 95 238 218 324 313 705 678 1103 1059 800 766 920 883 923 894 4 19
-436 255 -723 387 -55 26 -176 79 -270 119 -93 39 -183 78 -200 85 -241 103
-830 305 -1188 406 -152 43 -147 42 -147 32z"/>
<path d="M14045 19959 c-27 -11 -59 -24 -70 -29 -11 -5 -40 -18 -65 -28 -298
-128 -537 -247 -860 -430 -264 -150 -518 -308 -795 -495 -175 -119 -370 -258
-373 -267 -1 -4 48 -45 110 -91 62 -46 302 -222 533 -393 231 -170 488 -359
570 -420 136 -101 805 -595 1157 -854 77 -57 142 -101 144 -99 2 2 -7 125 -21
273 -14 148 -32 343 -40 434 -8 91 -19 212 -25 270 -5 58 -17 179 -25 270 -8
91 -26 289 -40 440 -26 272 -35 369 -74 815 -12 127 -25 271 -31 320 -5 50
-12 128 -15 175 -7 99 -13 130 -23 129 -4 0 -29 -9 -57 -20z"/>
<path d="M23305 19188 c-4 -18 -18 -80 -31 -138 -13 -58 -30 -134 -38 -170 -8
-36 -40 -177 -71 -315 -30 -137 -62 -277 -69 -310 -8 -33 -23 -100 -35 -150
-11 -49 -34 -153 -51 -230 -36 -163 -64 -285 -90 -397 -5 -24 -30 -135 -55
-248 -25 -113 -55 -245 -66 -295 -12 -49 -27 -117 -35 -150 -7 -33 -39 -172
-69 -310 -31 -137 -63 -280 -72 -318 -9 -37 -14 -70 -11 -72 2 -2 638 312
1413 699 l1408 703 -90 99 c-284 312 -791 760 -1233 1090 -276 207 -767 544
-790 544 -5 0 -11 -15 -15 -32z"/>
<path d="M11524 18418 c-315 -255 -709 -631 -1026 -978 -171 -188 -366 -426
-356 -435 5 -5 105 -69 358 -230 80 -51 228 -145 330 -210 102 -65 266 -169
365 -232 99 -63 272 -173 385 -245 274 -174 468 -298 685 -435 214 -135 409
-260 484 -309 30 -19 57 -33 61 -32 6 3 -94 275 -379 1033 -164 436 -292 777
-371 990 -45 121 -85 229 -90 240 -5 11 -45 119 -90 240 -174 467 -254 675
-261 675 -3 0 -46 -32 -95 -72z"/>
<path d="M25438 17053 c-75 -131 -160 -278 -188 -328 -29 -49 -148 -256 -265
-460 -413 -721 -643 -1121 -695 -1210 -193 -333 -311 -547 -306 -552 3 -3 524
81 1158 186 634 106 1218 203 1298 216 80 13 254 42 387 65 134 22 245 40 248
40 16 0 -5 51 -87 213 -282 557 -673 1156 -1127 1727 -135 171 -271 334 -280
338 -4 1 -68 -105 -143 -235z"/>
<path d="M17650 15925 c-442 -45 -882 -140 -1270 -273 -125 -43 -137 -48 -345
-130 -511 -201 -1080 -527 -1555 -888 -175 -132 -365 -291 -365 -304 0 -10 67
-74 497 -473 113 -106 207 -195 207 -198 1 -4 -41 -46 -91 -95 -465 -442 -766
-798 -977 -1156 -44 -75 -228 -442 -326 -653 -84 -179 -114 -244 -175 -380
-12 -27 -56 -123 -96 -212 -41 -89 -74 -164 -74 -167 0 -2 -13 -33 -29 -68
-138 -298 -452 -1056 -694 -1678 -79 -201 -281 -743 -316 -845 -11 -33 -52
-148 -90 -255 -104 -289 -395 -1170 -388 -1176 5 -5 246 85 772 289 138 54
139 54 151 93 73 240 175 531 331 949 48 129 195 498 218 549 7 17 25 58 40
91 72 162 94 210 160 340 116 230 202 340 340 435 74 51 222 116 325 144 195
52 296 62 710 71 135 3 281 8 325 10 44 2 247 7 450 11 204 3 385 7 404 9 19
2 196 6 394 10 l359 8 -7 -24 c-23 -74 -184 -280 -296 -379 -205 -181 -486
-345 -772 -451 -198 -74 -295 -103 -532 -158 -340 -80 -858 -141 -1191 -141
-78 0 -114 -4 -121 -12 -5 -7 -33 -105 -60 -218 -28 -113 -108 -430 -178 -705
-69 -275 -169 -666 -220 -870 -52 -203 -141 -559 -200 -790 -58 -231 -160
-631 -225 -890 -65 -258 -159 -630 -209 -825 -107 -425 -263 -1038 -411 -1625
-60 -236 -166 -655 -236 -930 -144 -566 -142 -560 -123 -553 8 3 77 32 154 63
536 219 882 357 1400 561 132 53 260 103 285 114 142 58 1290 492 1615 610 44
16 118 43 165 61 84 31 371 133 420 149 14 5 97 34 185 65 364 128 1023 344
1280 420 85 25 367 106 450 129 255 70 610 151 759 172 43 6 55 14 110 71 395
418 605 1125 582 1963 -6 230 -17 402 -37 545 -22 169 -42 290 -48 297 -4 4
-19 -29 -35 -75 -15 -45 -34 -95 -41 -112 -8 -16 -34 -81 -60 -143 -73 -180
-234 -517 -316 -662 -311 -551 -629 -923 -961 -1121 -130 -78 -200 -105 -873
-334 -84 -29 -564 -193 -990 -340 -170 -59 -341 -117 -380 -130 -38 -13 -189
-65 -335 -115 -235 -81 -434 -150 -655 -225 -38 -13 -189 -65 -335 -115 -146
-50 -335 -115 -420 -145 -85 -29 -209 -71 -275 -94 -239 -83 -298 -102 -303
-96 -6 6 67 301 448 1810 94 374 248 984 341 1355 94 371 229 907 300 1190 72
283 151 598 176 700 26 102 51 190 57 196 6 7 74 17 151 23 77 6 154 14 170
16 17 3 59 9 95 14 644 95 1281 335 1745 659 151 105 270 206 406 341 275 274
467 561 614 916 45 108 120 337 130 394 l7 41 -129 1 c-70 0 -135 2 -144 4 -9
1 -124 6 -255 9 -132 4 -288 9 -349 11 -713 28 -2033 23 -2375 -10 -25 -2 -81
-7 -125 -10 -187 -15 -372 -48 -451 -81 -20 -8 -38 -14 -40 -12 -6 7 103 311
159 443 493 1162 1322 2047 2302 2458 357 149 654 229 1050 282 239 32 631 42
905 24 224 -15 610 -87 835 -156 210 -64 474 -160 615 -225 510 -233 882 -484
1249 -843 267 -262 446 -487 635 -800 71 -118 236 -432 236 -448 0 -3 13 -34
29 -69 29 -64 110 -273 135 -350 159 -488 250 -971 262 -1393 6 -180 -8 -637
-20 -715 -2 -14 -7 -61 -11 -105 -25 -313 -102 -691 -188 -925 -53 -143 -38
-136 -147 -73 -469 272 -961 535 -975 521 -4 -3 40 -68 96 -144 111 -151 127
-173 275 -374 55 -74 147 -200 204 -278 58 -79 134 -184 170 -232 36 -49 144
-196 240 -327 96 -131 231 -314 300 -408 69 -93 173 -235 230 -313 58 -79 134
-184 170 -232 36 -49 144 -196 239 -327 96 -131 232 -314 301 -408 134 -181
316 -430 364 -497 l29 -41 -24 5 c-36 9 -324 66 -409 83 -41 7 -120 21 -175
30 -55 8 -127 20 -160 25 -180 30 -628 84 -780 95 -44 3 -120 10 -170 15 -49
5 -142 12 -205 15 -63 3 -146 8 -185 10 -38 2 -131 7 -205 10 -131 5 -161 9
-320 42 -349 72 -698 228 -979 438 -97 72 -291 241 -291 253 -1 4 -26 34 -57
67 -67 73 -65 64 31 -138 40 -83 85 -177 99 -207 13 -30 48 -104 77 -165 29
-60 69 -146 90 -190 21 -44 61 -129 90 -190 29 -60 65 -137 80 -170 15 -33 54
-114 85 -180 32 -66 77 -160 100 -210 23 -49 52 -112 65 -138 l23 -49 221 8
c545 19 1044 -6 1631 -81 965 -125 2099 -391 3114 -731 122 -42 225 -74 227
-71 2 2 -13 27 -34 55 -20 28 -60 84 -89 124 -29 40 -238 332 -465 648 -227
316 -420 585 -428 597 -8 12 -115 161 -236 330 -122 169 -341 475 -487 678
-146 204 -279 388 -295 410 -16 22 -190 264 -386 537 l-357 498 15 52 c8 29
28 100 44 158 27 95 69 262 107 425 59 259 117 636 151 990 25 255 26 872 1
1070 -55 453 -120 780 -222 1130 -96 326 -208 619 -348 905 -190 390 -399 715
-681 1055 -115 139 -440 467 -571 576 -425 355 -901 635 -1410 831 -356 137
-738 241 -1115 302 -88 14 -144 22 -430 58 -141 18 -798 18 -930 0 -322 -43
-535 -88 -704 -148 -113 -39 -105 -27 49 77 220 148 566 286 885 352 271 57
433 71 775 71 385 -1 599 -23 984 -100 383 -77 808 -211 1109 -350 29 -13 55
-24 58 -24 12 0 326 -157 431 -216 1098 -614 1888 -1550 2363 -2799 291 -765
418 -1539 414 -2520 -2 -477 -30 -909 -94 -1454 -6 -51 -9 -95 -7 -97 6 -6 65
125 130 288 113 280 210 598 282 928 9 41 20 93 25 115 13 54 57 329 70 435
66 542 50 1208 -44 1770 -157 941 -552 1859 -1129 2625 -251 333 -619 725
-922 982 -744 632 -1632 1085 -2540 1297 -38 9 -88 21 -110 26 -40 9 -158 33
-250 50 -53 9 -199 32 -325 49 -41 6 -115 13 -165 17 -49 3 -101 8 -115 11
-62 13 -759 11 -890 -2z"/>
<path d="M26887 14493 c-182 -169 -454 -420 -602 -558 -484 -447 -1167 -1079
-1298 -1199 -71 -65 -126 -120 -123 -123 3 -3 49 -11 103 -18 54 -8 150 -21
213 -30 63 -8 147 -20 185 -25 39 -4 120 -15 180 -24 126 -18 391 -54 815
-111 102 -14 214 -30 250 -35 36 -5 119 -16 185 -25 66 -9 147 -20 180 -25 33
-6 96 -14 140 -20 44 -5 130 -17 190 -25 125 -17 201 -28 365 -50 63 -8 158
-22 210 -29 52 -8 97 -13 101 -10 8 5 7 18 -23 204 -80 506 -255 1162 -472
1765 -68 188 -251 645 -259 645 -4 0 -157 -138 -340 -307z"/>
<path d="M27922 11835 c-45 -24 -229 -119 -410 -211 -180 -92 -394 -202 -477
-244 -82 -42 -262 -134 -400 -205 -137 -70 -340 -174 -450 -230 -110 -56 -308
-158 -440 -225 -247 -126 -484 -248 -498 -257 -10 -6 43 -31 228 -110 134 -57
198 -85 250 -108 17 -7 84 -37 150 -65 66 -28 139 -60 162 -71 24 -10 82 -35
130 -55 49 -20 121 -52 161 -70 41 -19 75 -34 77 -34 5 0 1250 -537 1320 -569
22 -10 92 -40 155 -66 63 -27 119 -52 125 -56 5 -5 17 -9 27 -9 23 0 26 13 52
270 65 625 55 1379 -29 2135 -22 197 -27 225 -39 225 -6 -1 -48 -21 -94 -45z"/>
<path d="M27350 8829 c-523 -88 -1362 -227 -2140 -355 -151 -25 -281 -47 -288
-50 -9 -2 -2 -13 20 -31 37 -31 405 -351 659 -573 91 -80 264 -230 385 -335
120 -104 239 -208 264 -231 35 -31 714 -622 921 -801 20 -18 41 -33 47 -33 8
0 102 187 102 203 0 3 16 40 35 82 167 362 428 1176 541 1690 9 39 22 99 30
135 34 155 74 357 74 378 0 19 -5 22 -32 21 -18 -1 -296 -46 -618 -100z"/>
<path d="M23910 6784 c0 -4 66 -77 148 -163 323 -342 511 -541 817 -866 176
-187 362 -385 415 -440 199 -209 708 -752 740 -788 17 -20 37 -37 44 -37 37 0
440 598 672 996 134 230 381 700 373 709 -2 2 -42 10 -89 19 -47 8 -148 27
-225 41 -77 14 -237 44 -355 65 -118 22 -276 50 -350 64 -305 56 -478 88 -525
96 -27 5 -111 20 -185 34 -74 13 -223 41 -330 60 -107 20 -231 42 -275 51 -44
8 -143 26 -220 40 -77 14 -160 30 -185 35 -25 5 -137 26 -250 46 -113 20 -208
38 -212 41 -5 2 -8 1 -8 -3z"/>
</g>
</svg>
